<svg width="268" height="99" viewBox="0 0 268 99" fill="none" xmlns="http://www.w3.org/2000/svg">
<g clip-path="url(#clip0)">
<path d="M237.147 0.288524C248.598 1.8135 258.979 9.19111 264.046 19.7835C266.188 24.276 267.382 29.2219 267.382 34.209C267.382 51.8905 254.118 64.4201 242.419 67.4288C219.846 73.2402 202.009 57.4134 199.373 39.9792C196.489 21.2673 209.424 2.88511 228.331 0.288524C231.256 -0.123633 234.222 -0.0824168 237.147 0.288524ZM233.151 60.7931C246.909 61.3289 259.762 49.1703 259.72 34.4975C259.679 19.7423 248.063 8.20193 233.481 7.83099C219.145 7.41883 206.54 20.1957 206.54 34.2502C206.54 48.1399 218.775 61.3289 233.151 60.7931Z" fill="white"/>
<path d="M85.1455 0.288524C96.5971 1.8135 106.978 9.19111 112.044 19.7835C114.186 24.276 115.381 29.2219 115.381 34.209C115.381 51.8905 102.117 64.4201 90.4181 67.4288C67.8445 73.2402 50.0081 57.4134 47.3717 39.9792C44.4883 21.2673 57.4228 2.88511 76.3302 0.288524C79.2549 -0.123633 82.2208 -0.0824168 85.1455 0.288524ZM81.1498 60.7931C94.9082 61.3289 107.76 49.1703 107.719 34.4975C107.678 19.7423 96.0616 8.20193 81.4793 7.83099C67.1443 7.41883 54.5393 20.1957 54.5393 34.2502C54.5393 48.1399 66.7735 61.3289 81.1498 60.7931Z" fill="white"/>
<path d="M169.591 0.082428H169.426V15.9917C162.258 15.9917 155.255 15.9917 148.006 15.9917V0.082428H147.964C145.493 0.082428 142.856 0.082428 140.385 0.082428H140.014V16.239C138.325 16.239 136.925 16.239 135.483 16.239C135.483 18.8356 135.483 21.2261 135.483 23.8639C136.966 23.8639 138.366 23.8639 140.014 23.8639V68.418H140.261C142.939 68.418 145.287 68.418 147.882 68.418H148.006V23.9875C155.214 23.9875 162.176 23.9875 169.426 23.9875V68.418H177.417V68.3768C177.417 45.5021 177.417 22.7923 177.417 0.082428C174.822 0.082428 172.227 0.082428 169.591 0.082428Z" fill="white"/>
<path d="M16.3534 0.0832825C16.3534 2.59744 16.3534 5.11159 16.3534 7.74939C15.6119 7.87304 14.9116 7.87304 14.2937 8.0379C10.8335 9.02708 8.19719 11.5412 7.62049 15.1682C7.37334 16.7344 7.49692 18.4242 8.11481 19.908C9.14463 22.3809 11.2455 24.0708 13.3051 25.6782C15.3235 27.2444 17.1772 28.9755 19.1545 30.5829C27.1047 36.9301 29.4527 52.015 20.5962 61.4122C17.0948 65.1216 12.9756 67.6357 7.86765 68.3776C6.79664 68.5425 5.72563 68.5013 4.48984 68.5837C4.48984 65.9459 4.48984 63.5142 4.48984 61C4.90177 60.9176 5.3137 60.8351 5.72563 60.7939C12.4812 60.052 18.0423 54.4879 18.5366 47.6461C19.3604 36.7652 8.48554 33.7565 3.00691 26.4613C-4.77852 15.9513 3.50122 0.0832825 16.3534 0.0832825Z" fill="white"/>
<path d="M4.16047 87.8718C5.1491 87.8718 5.97295 88.2015 6.59084 88.8609C7.24993 89.5204 7.57947 90.3035 7.57947 91.2927C7.57947 92.2818 7.24993 93.0649 6.59084 93.7244C5.93176 94.3838 5.1491 94.6723 4.16047 94.6723H1.27698V98.8351H0.453125V87.8718H4.16047ZM4.16047 93.848C4.90194 93.848 5.51983 93.6007 6.01415 93.1062C6.50846 92.6116 6.75561 91.9933 6.75561 91.2514C6.75561 90.4683 6.50846 89.8501 6.01415 89.3555C5.51983 88.8609 4.90194 88.6136 4.16047 88.6136H1.27698V93.848H4.16047Z" fill="white"/>
<path d="M19.0311 98.8351L16.3948 94.3426H12.9346V98.8351H12.1107V87.8718H16.436C17.3422 87.8718 18.0837 88.2015 18.7016 88.8197C19.3606 89.4792 19.649 90.2211 19.649 91.0866C19.649 91.8285 19.4018 92.4879 18.9487 93.0649C18.4956 93.642 17.9189 94.0129 17.2186 94.219L19.9373 98.8351H19.0311ZM12.9758 88.6549V93.5595H16.4772C17.1362 93.5595 17.7129 93.3122 18.1661 92.8589C18.6192 92.3643 18.8663 91.7873 18.8663 91.1278C18.8663 90.4684 18.6192 89.8913 18.1661 89.3967C17.7129 88.9022 17.1362 88.6961 16.4772 88.6961H12.9758V88.6549Z" fill="white"/>
<path d="M25.0452 98.052H30.5238V98.8351H24.2213V87.8718H30.4414V88.6549H25.0452V92.9001H30.0707V93.6832H25.0452V98.052Z" fill="white"/>
<path d="M44.9824 87.8718V98.8351H44.1586V89.1082L40.1217 95.8264H39.9569L35.92 89.1082V98.8351H35.0962V87.8718H36.126L40.0393 94.3426L43.9526 87.8718H44.9824Z" fill="white"/>
<path d="M50.214 87.8718H51.0378V98.8351H50.214V87.8718Z" fill="white"/>
<path d="M56.1045 87.8718H56.9284V95.1669C56.9284 96.9804 58.0818 98.2169 60.1002 98.2169C62.1187 98.2169 63.3133 97.0216 63.3133 95.1669V87.8718H64.1371V95.1669C64.1371 96.321 63.7664 97.2689 63.0249 97.9696C62.2835 98.6703 61.336 99 60.1002 99C58.9056 99 57.917 98.6703 57.1756 97.9696C56.4341 97.2689 56.0634 96.321 56.0634 95.1669V87.8718H56.1045Z" fill="white"/>
<path d="M79.1312 87.8718V98.8351H78.3073V89.1082L74.2705 95.8264H74.1469L70.11 89.1082V98.8351H69.2861V87.8718H70.316L74.2293 94.3426L78.1426 87.8718H79.1312Z" fill="white"/>
<path d="M98.2446 87.8718H99.0685V98.8351H98.2446V93.5595H91.8597V98.7939H91.0359V87.8306H91.8597V92.7764H98.2446V87.8718Z" fill="white"/>
<path d="M109.326 99C107.76 99 106.401 98.4642 105.33 97.3514C104.218 96.2385 103.682 94.9196 103.682 93.3534C103.682 91.7873 104.218 90.4684 105.33 89.3555C106.442 88.2427 107.76 87.7069 109.326 87.7069C110.891 87.7069 112.25 88.2427 113.321 89.3555C114.433 90.4684 114.969 91.7873 114.969 93.3534C114.969 94.9196 114.433 96.2385 113.321 97.3514C112.209 98.4642 110.891 99 109.326 99ZM109.326 98.1757C110.685 98.1757 111.797 97.7223 112.745 96.7743C113.692 95.8264 114.145 94.6723 114.145 93.3122C114.145 91.9521 113.692 90.8393 112.745 89.8913C111.838 88.9434 110.685 88.4488 109.326 88.4488C107.966 88.4488 106.854 88.9022 105.907 89.8913C105 90.8393 104.506 91.9933 104.506 93.3122C104.506 94.6723 104.959 95.7852 105.907 96.7743C106.813 97.7223 107.966 98.1757 109.326 98.1757Z" fill="white"/>
<path d="M124.608 99C123.043 99 121.683 98.4642 120.612 97.3514C119.5 96.2385 118.965 94.9196 118.965 93.3534C118.965 91.7873 119.5 90.4684 120.612 89.3555C121.725 88.2427 123.043 87.7069 124.608 87.7069C126.173 87.7069 127.533 88.2427 128.604 89.3555C129.716 90.4684 130.251 91.7873 130.251 93.3534C130.251 94.9196 129.716 96.2385 128.604 97.3514C127.492 98.4642 126.173 99 124.608 99ZM124.608 98.1757C125.967 98.1757 127.08 97.7223 128.027 96.7743C128.974 95.8264 129.428 94.6723 129.428 93.3122C129.428 91.9521 128.974 90.8393 128.027 89.8913C127.121 88.9434 125.967 88.4488 124.608 88.4488C123.249 88.4488 122.136 88.9022 121.189 89.8913C120.283 90.8393 119.788 91.9933 119.788 93.3122C119.788 94.6723 120.242 95.7852 121.189 96.7743C122.095 97.7223 123.249 98.1757 124.608 98.1757Z" fill="white"/>
<path d="M142.28 98.8351H141.167L135.689 93.4359V98.8351H134.865V87.8718H135.689V92.9825L141.044 87.8718H142.156L136.595 93.1886L142.28 98.8351Z" fill="white"/>
<path d="M153.814 98.8351L152.743 96.0325H147.264L146.193 98.8351H145.328L149.571 87.8718H150.436L154.679 98.8351H153.814ZM147.594 95.2494H152.496L150.065 88.8609L147.594 95.2494Z" fill="white"/>
<path d="M166.007 87.8718H166.831V98.8351H166.007V93.5595H159.622V98.7939H158.798V87.8306H159.622V92.7764H166.007V87.8718Z" fill="white"/>
<path d="M182.484 87.8718C183.472 87.8718 184.296 88.2015 184.914 88.8609C185.573 89.5204 185.903 90.3035 185.903 91.2927C185.903 92.2818 185.573 93.0649 184.914 93.7244C184.255 94.3838 183.472 94.6723 182.484 94.6723H179.6V98.8351H178.776V87.8718H182.484ZM182.484 93.848C183.225 93.848 183.843 93.6007 184.338 93.1062C184.832 92.6116 185.079 91.9933 185.079 91.2514C185.079 90.4683 184.832 89.8501 184.338 89.3555C183.843 88.8609 183.225 88.6136 182.484 88.6136H179.6V93.848H182.484Z" fill="white"/>
<path d="M197.354 98.8351L194.718 94.3426H191.258V98.8351H190.434V87.8718H194.759C195.666 87.8718 196.407 88.2015 197.025 88.8197C197.684 89.4792 197.972 90.2211 197.972 91.0866C197.972 91.8285 197.725 92.4879 197.272 93.0649C196.819 93.642 196.242 94.0129 195.542 94.219L198.261 98.8351H197.354ZM191.258 88.6549V93.5595H194.759C195.418 93.5595 195.995 93.3122 196.448 92.8589C196.901 92.3643 197.149 91.7873 197.149 91.1278C197.149 90.4684 196.901 89.8913 196.448 89.3967C195.995 88.9022 195.418 88.6961 194.759 88.6961H191.258V88.6549Z" fill="white"/>
<path d="M207.57 99C206.005 99 204.646 98.4642 203.575 97.3514C202.462 96.2385 201.927 94.9196 201.927 93.3534C201.927 91.7873 202.462 90.4684 203.575 89.3555C204.687 88.2427 206.005 87.7069 207.57 87.7069C209.136 87.7069 210.495 88.2427 211.566 89.3555C212.678 90.4684 213.214 91.7873 213.214 93.3534C213.214 94.9196 212.678 96.2385 211.566 97.3514C210.495 98.4642 209.136 99 207.57 99ZM207.57 98.1757C208.93 98.1757 210.042 97.7223 210.989 96.7743C211.937 95.8264 212.39 94.6723 212.39 93.3122C212.39 91.9521 211.937 90.8393 210.989 89.8913C210.083 88.9434 208.93 88.4488 207.57 88.4488C206.211 88.4488 205.099 88.9022 204.151 89.8913C203.245 90.8393 202.751 91.9933 202.751 93.3122C202.751 94.6723 203.204 95.7852 204.151 96.7743C205.099 97.7223 206.211 98.1757 207.57 98.1757Z" fill="white"/>
<path d="M220.299 98.8351L216.221 87.8718H217.127L220.752 97.7635L224.377 87.8718H225.283L221.205 98.8351H220.299Z" fill="white"/>
<path d="M229.32 87.8718H230.144V98.8351H229.32V87.8718Z" fill="white"/>
<path d="M239.495 87.8718C240.978 87.8718 242.213 88.4076 243.202 89.4792C244.191 90.5096 244.685 91.8285 244.685 93.3534C244.685 94.8784 244.191 96.1973 243.202 97.2689C242.213 98.2993 240.978 98.8351 239.495 98.8351H235.375V87.8718H239.495ZM239.495 98.052C240.772 98.052 241.801 97.5987 242.625 96.6919C243.449 95.7852 243.861 94.6723 243.861 93.3534C243.861 92.0345 243.449 90.9217 242.625 90.015C241.801 89.1082 240.772 88.6549 239.495 88.6549H236.199V98.052H239.495Z" fill="white"/>
<path d="M250.081 98.052H255.56V98.8351H249.257V87.8718H255.477V88.6549H250.081V92.9001H255.107V93.6832H250.081V98.052Z" fill="white"/>
<path d="M267.053 98.8351L264.416 94.3426H260.956V98.8351H260.132V87.8718H264.457C265.364 87.8718 266.105 88.2015 266.723 88.8197C267.382 89.4792 267.67 90.2211 267.67 91.0866C267.67 91.8285 267.423 92.4879 266.97 93.0649C266.517 93.642 265.94 94.0129 265.24 94.219L267.959 98.8351H267.053ZM260.956 88.6549V93.5595H264.457C265.117 93.5595 265.693 93.3122 266.146 92.8589C266.599 92.3643 266.847 91.7873 266.847 91.1278C266.847 90.4684 266.599 89.8913 266.146 89.3967C265.693 88.9022 265.117 88.6961 264.457 88.6961H260.956V88.6549Z" fill="white"/>
</g>
<defs>
<clipPath id="clip0">
<rect width="268" height="99" fill="white"/>
</clipPath>
</defs>
</svg>
